<svg width="101" height="100" viewBox="0 0 101 100" fill="none" xmlns="http://www.w3.org/2000/svg">
<circle cx="48" cy="48" r="48" fill="#D9D9D9"/>
<path d="M73.5 18.5C68.5454 8.59081 50.5 0.999991 33 9.5C27.4315 12.2047 19.6429 18.5 17.5 26C16.5 29.5 15.0232 40.0594 20 46.5C28.5 57.5 30.5 66.5 31.5 74.5C32.5 82.5 32.5 81 32.5 85.5C56.5 86.3 62.8333 89.8333 63 91.5L62.5 86.5C61.5 83.5 61.5 71 68.5 71.5C75.5 72 72 63.6429 74 62.5C76 61.3571 72.5 58.5 75.5 58C78.5 57.5 72.5 53.5 78 52.5C83.5 51.5 76.6043 45.6535 75.5 40.5C74 33.5 81 33.5 73.5 18.5Z" stroke="#ACA5A5"/>
<path d="M75 39C77 44.5 81 51 80 51.5C77.6412 52.1207 76.4069 52.6046 75.5 54.5C78 59.5 74 57 74 60C75.108 61.5 73.503 62.8597 73.2995 64C73.0021 65.6663 72.5 67.5 72.5 69C72.5 70.5 70.0439 71.2596 68 71.5C63.0739 72.9075 63 74 61.6927 81C61.6927 85.5 63.5 92 63 90C62 90.5 51.8807 86.6801 49 86.5C30.5 85.3438 33.1532 86.5519 32.5 81C31.5 72.5 32.5 69 25 53C18.5 46.5 16.5 37.6623 16.5 34.5C16.5 14 38 4.5 51.5 6.00001C66 6.00001 81.5 20 75 39Z" fill="#363636"/>
<path d="M48 39.5769C54.8849 39.5769 60.5 34.2054 60.5 27.5385C60.5 20.8715 54.8849 15.5 48 15.5C41.1151 15.5 35.5 20.8715 35.5 27.5385C35.5 34.2054 41.1151 39.5769 48 39.5769Z" stroke="#BABABA"/>
<path d="M46.5 28.75C61.5 20.5 50.25 16.75 48.75 16C60 16.75 60.75 26.5 60 29.5C57.75 40 45.75 40 44.25 38.5C41.25 35.5 43.3631 31.5739 46.5 28.75Z" fill="white"/>
<path d="M49.5 27.25C39.75 31.75 42.75 38.95 47.25 39.25C36 38.5 35.0557 27.5205 36 25C38.2119 15.6175 47.1017 15.8352 48.75 16C56.25 16.75 55.8845 24.3033 49.5 27.25Z" fill="black"/>
<circle cx="48.75" cy="19.75" r="2.25" fill="white"/>
<circle cx="48.75" cy="34.75" r="2.25" fill="black"/>
</svg>
